<svg xmlns="http://www.w3.org/2000/svg" viewBox="0 0 1400 1000" width="100%" height="100%" style="background-color: #f8fafc; font-family: 'Inter', system-ui, -apple-system, sans-serif;">
  <defs>
    <!-- Background Grid Pattern -->
    <pattern id="grid" width="40" height="40" patternUnits="userSpaceOnUse">
      <circle cx="2" cy="2" r="1.5" fill="#cbd5e1" />
    </pattern>
    <pattern id="grid-large" width="200" height="200" patternUnits="userSpaceOnUse">
      <rect width="200" height="200" fill="url(#grid)" />
      <path d="M 200 0 L 0 0 0 200" fill="none" stroke="#e2e8f0" stroke-width="1.5" />
    </pattern>

    <!-- Gradients -->
    <linearGradient id="pool-grad" x1="0%" y1="0%" x2="0%" y2="100%">
      <stop offset="0%" stop-color="#ffffff" />
      <stop offset="100%" stop-color="#f1f5f9" />
    </linearGradient>
    <linearGradient id="task-grad" x1="0%" y1="0%" x2="0%" y2="100%">
      <stop offset="0%" stop-color="#ffffff" />
      <stop offset="100%" stop-color="#f8fafc" />
    </linearGradient>

    <!-- Shadows & Filters -->
    <filter id="drop-shadow" x="-10%" y="-10%" width="130%" height="130%">
      <feDropShadow dx="0" dy="4" stdDeviation="6" flood-color="#0f172a" flood-opacity="0.06" />
    </filter>
    <filter id="bottleneck-glow" x="-20%" y="-20%" width="140%" height="140%">
      <feDropShadow dx="0" dy="0" stdDeviation="8" flood-color="#ef4444" flood-opacity="0.4" />
    </filter>
    <filter id="pattern-glow" x="-20%" y="-20%" width="140%" height="140%">
      <feDropShadow dx="0" dy="0" stdDeviation="6" flood-color="#f59e0b" flood-opacity="0.5" />
    </filter>

    <!-- Markers for Sequence Flows -->
    <marker id="arrow-filled" viewBox="0 0 12 12" refX="10" refY="6" markerWidth="8" markerHeight="8" orient="auto">
      <path d="M 0 0 L 12 6 L 0 12 Z" fill="#475569" />
    </marker>
    <marker id="arrow-open" viewBox="0 0 12 12" refX="10" refY="6" markerWidth="8" markerHeight="8" orient="auto">
      <path d="M 0 0 L 12 6 L 0 12" fill="none" stroke="#6366f1" stroke-width="2" />
    </marker>
    <marker id="arrow-dot" viewBox="0 0 10 10" refX="10" refY="5" markerWidth="6" markerHeight="6" orient="auto">
      <circle cx="5" cy="5" r="4" fill="#94a3b8" />
    </marker>

    <!-- Icons -->
    <g id="icon-envelope">
      <rect x="-8" y="-6" width="16" height="12" rx="2" fill="none" stroke="currentColor" stroke-width="2" />
      <path d="M -8 -6 L 0 0 L 8 -6" fill="none" stroke="currentColor" stroke-width="2" />
    </g>
    <g id="icon-document">
      <path d="M -8 -8 L 8 -8 L 8 8 L -8 8 Z" fill="none" stroke="currentColor" stroke-width="2" />
      <path d="M 2 -8 L 2 -2 L 8 -2" fill="none" stroke="currentColor" stroke-width="2" />
      <path d="M -4 -2 L 6 -2 M -4 2 L 6 2 M -4 6 L 2 6" fill="none" stroke="currentColor" stroke-width="1.5" />
    </g>
    <g id="icon-clock">
      <circle cx="0" cy="0" r="8" fill="none" stroke="currentColor" stroke-width="2" />
      <path d="M 0 -4 L 0 0 L 3 2" fill="none" stroke="currentColor" stroke-width="2" stroke-linecap="round" stroke-linejoin="round" />
    </g>
    <g id="icon-x">
      <path d="M -6 -6 L 6 6 M -6 6 L 6 -6" fill="none" stroke="currentColor" stroke-width="3" stroke-linecap="round" />
    </g>
    <g id="icon-plus">
      <path d="M 0 -8 L 0 8 M -8 0 L 8 0" fill="none" stroke="currentColor" stroke-width="3" stroke-linecap="round" />
    </g>
  </defs>

  <!-- BACKGROUND -->
  <rect width="100%" height="100%" fill="url(#grid-large)" />

  <!-- TITLE & WATERMARK -->
  <text x="700" y="45" font-size="24" font-weight="800" fill="#1e293b" text-anchor="middle" letter-spacing="1">FREELANCE CLIENT APPROVAL PROCESS — BPMN TOPOLOGY MAP</text>
  <text x="700" y="70" font-size="14" fill="#64748b" text-anchor="middle" letter-spacing="2">BUSINESS TOPOLOGY &amp; PROCESS INTELLIGENCE ANALYSIS</text>

  <!-- ==================== POOLS ==================== -->
  <!-- Client Pool -->
  <g class="pool" transform="translate(40, 80)">
    <rect width="500" height="860" rx="16" fill="url(#pool-grad)" stroke="#cbd5e1" stroke-width="2" filter="url(#drop-shadow)" />
    <rect width="500" height="40" rx="16" fill="#f1f5f9" />
    <rect y="16" width="500" height="24" fill="#f1f5f9" />
    <text x="30" y="26" font-size="18" font-weight="700" fill="#475569" letter-spacing="2">CLIENT</text>
  </g>

  <!-- Khiva Cheleigh Pool (formerly Freelancer) -->
  <g class="pool" transform="translate(620, 80)">
    <rect width="560" height="860" rx="16" fill="url(#pool-grad)" stroke="#cbd5e1" stroke-width="2" filter="url(#drop-shadow)" />
    <rect width="560" height="40" rx="16" fill="#f1f5f9" />
    <rect y="16" width="560" height="24" fill="#f1f5f9" />
    <text x="30" y="26" font-size="18" font-weight="700" fill="#475569" letter-spacing="2">KHIVA CHELEIGH</text>
  </g>

  <!-- External Partner Pool (Implicit Sub-contracting Pattern) -->
  <g class="pool" transform="translate(1230, 420)">
    <rect width="160" height="320" rx="12" fill="url(#pool-grad)" stroke="#a78bfa" stroke-width="2" stroke-dasharray="6,4" filter="url(#drop-shadow)" />
    <rect width="160" height="30" rx="12" fill="#ede9fe" />
    <rect y="15" width="160" height="15" fill="#ede9fe" />
    <text x="80" y="20" font-size="12" font-weight="700" fill="#6d28d9" text-anchor="middle" letter-spacing="1">PARTNER</text>
  </g>

  <!-- ==================== CLIENT ELEMENTS ==================== -->
  <g id="client-pool-elements">
    <!-- Start Event -->
    <g class="event start" transform="translate(220, 200)">
      <circle cx="0" cy="0" r="18" fill="#ffffff" stroke="#10b981" stroke-width="2" />
    </g>
    
    <!-- Brief Created Task -->
    <g class="task" transform="translate(130, 260)">
      <rect width="180" height="60" rx="8" fill="url(#task-grad)" stroke="#cbd5e1" stroke-width="2" filter="url(#drop-shadow)" />
      <text x="90" y="32" font-size="14" font-weight="600" fill="#1e293b" text-anchor="middle">Brief Created</text>
    </g>

    <!-- Data Object: Brief PDF -->
    <g class="data-object" transform="translate(260, 340)">
      <rect x="0" y="0" width="30" height="40" rx="3" fill="#ffffff" stroke="#94a3b8" stroke-width="2" />
      <path d="M 20 0 L 20 10 L 30 10" fill="none" stroke="#94a3b8" stroke-width="2" />
      <path d="M 6 15 L 24 15 M 6 22 L 18 22" fill="none" stroke="#94a3b8" stroke-width="1.5" />
      <text x="15" y="55" font-size="10" fill="#64748b" text-anchor="middle">Brief PDF</text>
    </g>

    <!-- Proposal Received Event (Intermediate Message Catch) -->
    <g class="event intermediate" transform="translate(220, 480)">
      <circle cx="0" cy="0" r="18" fill="#ffffff" stroke="#f59e0b" stroke-width="2" />
      <circle cx="0" cy="0" r="14" fill="none" stroke="#f59e0b" stroke-width="1.5" />
      <use href="#icon-envelope" x="0" y="0" color="#f59e0b" />
    </g>

    <!-- Gateway: Accepted? -->
    <g class="gateway exclusive" transform="translate(220, 580)">
      <rect x="-20" y="-20" width="40" height="40" rx="4" fill="#ffffff" stroke="#475569" stroke-width="2" transform="rotate(45)" />
      <use href="#icon-x" x="0" y="0" color="#ef4444" />
      <text x="35" y="-5" font-size="13" font-weight="600" fill="#334155">Accepted?</text>
    </g>

    <!-- Sign Contract Task -->
    <g class="task" transform="translate(130, 660)">
      <rect width="180" height="60" rx="8" fill="url(#task-grad)" stroke="#cbd5e1" stroke-width="2" filter="url(#drop-shadow)" />
      <text x="90" y="32" font-size="14" font-weight="600" fill="#1e293b" text-anchor="middle">Sign Contract</text>
    </g>

    <!-- End Event -->
    <g class="event end" transform="translate(220, 780)">
      <circle cx="0" cy="0" r="18" fill="#ffffff" stroke="#ef4444" stroke-width="4" />
    </g>

    <!-- Request Revision Task -->
    <g class="task" transform="translate(370, 660)">
      <rect width="180" height="60" rx="8" fill="url(#task-grad)" stroke="#cbd5e1" stroke-width="2" filter="url(#drop-shadow)" />
      <text x="90" y="32" font-size="14" font-weight="600" fill="#1e293b" text-anchor="middle">Request Revision</text>
    </g>
  </g>

  <!-- ==================== KHIVA CHELEIGH ELEMENTS (formerly Freelancer) ==================== -->
  <g id="khiva-cheleigh-elements">
    <!-- Start Event (Message) -->
    <g class="event start" transform="translate(800, 200)">
      <circle cx="0" cy="0" r="18" fill="#ffffff" stroke="#10b981" stroke-width="2" />
      <use href="#icon-envelope" x="0" y="0" color="#10b981" />
    </g>

    <!-- Gateway: Capability? -->
    <g class="gateway exclusive" transform="translate(800, 320)">
      <rect x="-20" y="-20" width="40" height="40" rx="4" fill="#ffffff" stroke="#475569" stroke-width="2" transform="rotate(45)" />
      <use href="#icon-x" x="0" y="0" color="#ef4444" />
      <text x="35" y="-5" font-size="13" font-weight="600" fill="#334155">Capability?</text>
    </g>

    <!-- Decline Opportunity Task -->
    <g class="task" transform="translate(710, 400)">
      <rect width="180" height="60" rx="8" fill="url(#task-grad)" stroke="#cbd5e1" stroke-width="2" filter="url(#drop-shadow)" />
      <text x="90" y="32" font-size="14" font-weight="600" fill="#1e293b" text-anchor="middle">Decline Opportunity</text>
    </g>

    <!-- End Event (Decline) -->
    <g class="event end" transform="translate(800, 520)">
      <circle cx="0" cy="0" r="18" fill="#ffffff" stroke="#ef4444" stroke-width="4" />
    </g>

    <!-- Draft Proposal Task -->
    <g class="task" transform="translate(910, 260)">
      <rect width="180" height="60" rx="8" fill="url(#task-grad)" stroke="#cbd5e1" stroke-width="2" filter="url(#drop-shadow)" />
      <text x="90" y="32" font-size="14" font-weight="600" fill="#1e293b" text-anchor="middle">Draft Proposal</text>
    </g>

    <!-- Data Object: Proposal Document -->
    <g class="data-object" transform="translate(1060, 340)">
      <rect x="0" y="0" width="30" height="40" rx="3" fill="#ffffff" stroke="#94a3b8" stroke-width="2" />
      <path d="M 20 0 L 20 10 L 30 10" fill="none" stroke="#94a3b8" stroke-width="2" />
      <path d="M 6 15 L 24 15 M 6 22 L 12 22" fill="none" stroke="#94a3b8" stroke-width="1.5" />
      <text x="15" y="55" font-size="10" fill="#64748b" text-anchor="middle">Proposal Doc</text>
    </g>

    <!-- Parallel Gateway (Fork) -->
    <g class="gateway parallel" transform="translate(1000, 440)">
      <rect x="-20" y="-20" width="40" height="40" rx="4" fill="#ffffff" stroke="#475569" stroke-width="2" transform="rotate(45)" />
      <use href="#icon-plus" x="0" y="0" color="#3b82f6" />
    </g>

    <!-- Finalize Scope Task -->
    <g class="task" transform="translate(820, 540)">
      <rect width="160" height="60" rx="8" fill="url(#task-grad)" stroke="#cbd5e1" stroke-width="2" filter="url(#drop-shadow)" />
      <text x="80" y="32" font-size="14" font-weight="600" fill="#1e293b" text-anchor="middle">Finalize Scope</text>
    </g>

    <!-- Legal Review Task (HIGHLIGHTED BOTTLENECK) -->
    <g class="task bottleneck" transform="translate(1060, 540)">
      <rect width="160" height="60" rx="8" fill="#fef2f2" stroke="#ef4444" stroke-width="2.5" filter="url(#bottleneck-glow)" />
      <text x="80" y="32" font-size="14" font-weight="700" fill="#b91c1c" text-anchor="middle">Legal Review</text>
    </g>

    <!-- Intermediate Timer Event -->
    <g class="event intermediate" transform="translate(1140, 660)">
      <circle cx="0" cy="0" r="18" fill="#ffffff" stroke="#f59e0b" stroke-width="2" />
      <circle cx="0" cy="0" r="14" fill="none" stroke="#f59e0b" stroke-width="1.5" />
      <use href="#icon-clock" x="0" y="0" color="#f59e0b" />
      <text x="25" y="4" font-size="12" font-weight="500" fill="#92400e">48 hours</text>
    </g>

    <!-- Parallel Gateway (Join) -->
    <g class="gateway parallel" transform="translate(1000, 720)">
      <rect x="-20" y="-20" width="40" height="40" rx="4" fill="#ffffff" stroke="#475569" stroke-width="2" transform="rotate(45)" />
      <use href="#icon-plus" x="0" y="0" color="#3b82f6" />
    </g>

    <!-- Send Proposal Task -->
    <g class="task" transform="translate(910, 790)">
      <rect width="180" height="60" rx="8" fill="url(#task-grad)" stroke="#cbd5e1" stroke-width="2" filter="url(#drop-shadow)" />
      <text x="90" y="32" font-size="14" font-weight="600" fill="#1e293b" text-anchor="middle">Send Proposal</text>
    </g>
  </g>

  <!-- ==================== EXTERNAL PARTNER ELEMENTS ==================== -->
  <g id="external-pool-elements">
    <g class="task" transform="translate(1240, 560)">
      <rect width="140" height="60" rx="8" fill="#ffffff" stroke="#a78bfa" stroke-width="2" stroke-dasharray="4,2" filter="url(#drop-shadow)" />
      <text x="70" y="25" font-size="12" font-weight="600" fill="#6d28d9" text-anchor="middle">Fulfillment by</text>
      <text x="70" y="42" font-size="12" font-weight="600" fill="#6d28d9" text-anchor="middle">Partner</text>
    </g>
  </g>

  <!-- ==================== SEQUENCE FLOWS (Solid Arrows) ==================== -->
  <g id="sequence-flows" fill="none" stroke="#475569" stroke-width="2.5" marker-end="url(#arrow-filled)">
    <!-- Client Flows -->
    <path d="M 220 218 L 220 250" />
    <path d="M 220 320 L 220 462" />
    <path d="M 220 498 L 220 560" />
    <path d="M 240 580 L 300 580 L 300 660" /> <!-- Yes path -->
    <path d="M 220 720 L 220 762" />
    <path d="M 220 580 L 410 580 L 410 660" /> <!-- No path -->

    <!-- Khiva Cheleigh Flows -->
    <path d="M 800 218 L 800 300" />
    <path d="M 780 320 L 740 320 L 740 400" /> <!-- No path -->
    <path d="M 800 460 L 800 502" />
    <path d="M 820 320 L 940 320 L 940 290" /> <!-- Yes path (Draft Proposal) -->
    <path d="M 1000 320 L 1000 420" />
    <path d="M 980 460 L 880 460 L 880 540" /> <!-- Fork Left -->
    <path d="M 1020 460 L 1140 460 L 1140 540" /> <!-- Fork Right -->
    <path d="M 1140 600 L 1140 642" />
    <path d="M 1122 660 L 1000 660 L 1000 700" /> <!-- Timer to Join -->
    <path d="M 880 600 L 880 660 L 980 660 L 980 700" /> <!-- Finalize to Join -->
    <path d="M 1000 740 L 1000 780" />
  </g>

  <!-- ==================== MESSAGE FLOWS (Dashed Arrows) ==================== -->
  <g id="message-flows" fill="none" stroke="#6366f1" stroke-width="2.5" stroke-dasharray="8,6" marker-end="url(#arrow-open)">
    <!-- Client to Khiva Cheleigh (Brief Created -> Brief Received) -->
    <path d="M 310 290 C 550 290, 620 200, 782 200" />
    
    <!-- Khiva Cheleigh to Client (Send Proposal -> Proposal Received) -->
    <path d="M 910 820 C 600 820, 400 600, 238 480" />

    <!-- Client to Khiva Cheleigh (Request Revision -> Draft Proposal) -->
    <path d="M 460 720 C 460 880, 1150 880, 1150 340" />

    <!-- Khiva Cheleigh Legal Review to External Partner -->
    <path d="M 1220 570 L 1240 570" />
    
    <!-- External Partner to Khiva Cheleigh Join (Return) -->
    <path d="M 1240 620 C 1180 620, 1040 740, 1020 720" />
  </g>

  <!-- ==================== DATA ASSOCIATIONS (Dotted Lines) ==================== -->
  <g id="data-associations" fill="none" stroke="#94a3b8" stroke-width="2" stroke-dasharray="4,4" marker-end="url(#arrow-dot)">
    <!-- Brief PDF association -->
    <path d="M 240 320 L 275 340" />
    <!-- Proposal Document association -->
    <path d="M 1020 320 L 1075 340" />
  </g>

  <!-- ==================== ANNOTATIONS ==================== -->
  <g id="annotations" fill="#475569" font-size="12" font-weight="500">
    <!-- Khiva Cheleigh uses Notion template -->
    <path d="M 1000 260 L 1000 220 L 940 220" fill="none" stroke="#94a3b8" stroke-width="1.5" />
    <rect x="860" y="205" width="140" height="30" rx="4" fill="#fff" stroke="#cbd5e1" />
    <text x="930" y="224" font-size="11" fill="#64748b" text-anchor="middle">Khiva Cheleigh uses Notion template</text>

    <!-- If no response in 7 days, escalate -->
    <path d="M 220 480 L 220 440 L 260 440" fill="none" stroke="#94a3b8" stroke-width="1.5" />
    <rect x="260" y="425" width="180" height="30" rx="4" fill="#fff" stroke="#cbd5e1" />
    <text x="350" y="444" font-size="11" fill="#64748b" text-anchor="middle">If no response in 7 days, escalate</text>
  </g>

  <!-- ==================== TOPOLOGY PATTERN CALLOUTS ==================== -->
  <g id="pattern-callouts" font-size="11">
    <!-- Pattern 1: Hidden Bottleneck -->
    <g transform="translate(1060, 480)">
      <path d="M 80 15 L 140 15" fill="none" stroke="#ef4444" stroke-width="1.5" stroke-dasharray="3,3" />
      <rect x="0" y="0" width="200" height="40" rx="6" fill="#fef2f2" stroke="#fca5a5" stroke-width="1.5" filter="url(#bottleneck-glow)" />
      <text x="100" y="16" font-size="11" font-weight="700" fill="#b91c1c" text-anchor="middle">PATTERN 1: Hidden Bottleneck</text>
      <text x="100" y="30" font-size="10" font-weight="500" fill="#b91c1c" text-anchor="middle">Single Approval Point Risk</text>
    </g>

    <!-- Pattern 2: Message Wait State -->
    <g transform="translate(130, 440)">
      <path d="M 90 30 L 150 30" fill="none" stroke="#f59e0b" stroke-width="1.5" stroke-dasharray="3,3" />
      <rect x="0" y="15" width="220" height="40" rx="6" fill="#fffbeb" stroke="#fcd34d" stroke-width="1.5" filter="url(#pattern-glow)" />
      <text x="110" y="31" font-size="11" font-weight="700" fill="#b45309" text-anchor="middle">PATTERN 2: Message Wait State</text>
      <text x="110" y="45" font-size="10" font-weight="500" fill="#b45309" text-anchor="middle">No Timeout Escalation Configured</text>
    </g>

    <!-- Pattern 3: Implicit Sub-contracting -->
    <g transform="translate(1210, 500)">
      <path d="M 20 30 L 70 30" fill="none" stroke="#a78bfa" stroke-width="1.5" stroke-dasharray="3,3" />
      <rect x="0" y="15" width="190" height="40" rx="6" fill="#f5f3ff" stroke="#c4b5fd" stroke-width="1.5" />
      <text x="95" y="31" font-size="11" font-weight="700" fill="#6d28d9" text-anchor="middle">PATTERN 3: Implicit Sub-</text>
      <text x="95" y="45" font-size="11" font-weight="700" fill="#6d28d9" text-anchor="middle">contracting (Black Box)</text>
    </g>

    <!-- Pattern 4: Data Inconsistency -->
    <g transform="translate(880, 140)">
      <path d="M 120 30 L 180 30" fill="none" stroke="#3b82f6" stroke-width="1.5" stroke-dasharray="3,3" />
      <rect x="0" y="15" width="230" height="40" rx="6" fill="#eff6ff" stroke="#93c5fd" stroke-width="1.5" />
      <text x="115" y="31" font-size="11" font-weight="700" fill="#1d4ed8" text-anchor="middle">PATTERN 4: Data Inconsistency</text>
      <text x="115" y="45" font-size="10" font-weight="500" fill="#1d4ed8" text-anchor="middle">No Sync between Brief PDF &amp; Proposal Doc</text>
    </g>
  </g>

  <!-- ==================== LEGEND ==================== -->
  <g id="legend" transform="translate(30, 880)">
    <rect width="460" height="100" rx="8" fill="#ffffff" stroke="#e2e8f0" stroke-width="1.5" filter="url(#drop-shadow)" />
    <text x="20" y="25" font-size="14" font-weight="700" fill="#1e293b">BPMN Topology Legend</text>
    
    <!-- Events -->
    <circle cx="40" cy="55" r="10" fill="#fff" stroke="#10b981" stroke-width="2" />
    <text x="55" y="59" font-size="11" fill="#475569">Start</text>
    <circle cx="110" cy="55" r="10" fill="#fff" stroke="#f59e0b" stroke-width="2" />
    <circle cx="110" cy="55" r="7" fill="none" stroke="#f59e0b" stroke-width="1" />
    <text x="125" y="59" font-size="11" fill="#475569">Intermediate</text>
    <circle cx="205" cy="55" r="10" fill="#fff" stroke="#ef4444" stroke-width="3" />
    <text x="220" y="59" font-size="11" fill="#475569">End</text>

    <!-- Gateways -->
    <rect x="260" y="45" width="20" height="20" rx="2" fill="#fff" stroke="#475569" stroke-width="2" transform="translate(10, -3) rotate(45)" />
    <use href="#icon-x" x="270" y="55" color="#ef4444" transform="scale(0.6) translate(180, 36)" />
    <text x="295" y="59" font-size="11" fill="#475569">XOR</text>

    <rect x="330" y="45" width="20" height="20" rx="2" fill="#fff" stroke="#475569" stroke-width="2" transform="translate(10, -3) rotate(45)" />
    <use href="#icon-plus" x="340" y="55" color="#3b82f6" transform="scale(0.6) translate(226, 36)" />
    <text x="365" y="59" font-size="11" fill="#475569">AND</text>

    <!-- Flows -->
    <path d="M 30 80 L 60 80" fill="none" stroke="#475569" stroke-width="2" marker-end="url(#arrow-filled)" />
    <text x="75" y="84" font-size="11" fill="#475569">Sequence</text>
    <path d="M 130 80 L 160 80" fill="none" stroke="#6366f1" stroke-width="2" stroke-dasharray="4,2" marker-end="url(#arrow-open)" />
    <text x="175" y="84" font-size="11" fill="#475569">Message</text>
    <path d="M 240 80 L 270 80" fill="none" stroke="#94a3b8" stroke-width="2" stroke-dasharray="3,3" marker-end="url(#arrow-dot)" />
    <text x="285" y="84" font-size="11" fill="#475569">Data Association</text>
  </g>
</svg>
